<?xml version="1.0" standalone="no"?>
<!DOCTYPE svg PUBLIC "-//W3C//DTD SVG 20010904//EN"
 "http://www.w3.org/TR/2001/REC-SVG-20010904/DTD/svg10.dtd">
<svg version="1.0" xmlns="http://www.w3.org/2000/svg"
 width="619.000000pt" height="893.000000pt" viewBox="0 0 619.000000 893.000000"
 preserveAspectRatio="xMidYMid meet">

<g transform="translate(0.000000,893.000000) scale(0.100000,-0.100000)"
fill="#000000" stroke="none">
<path d="M2653 7570 c-116 -17 -292 -91 -413 -173 -71 -49 -182 -165 -238
-251 -62 -96 -106 -198 -139 -325 -22 -86 -24 -111 -20 -236 5 -161 29 -260
98 -404 146 -307 483 -541 891 -618 139 -26 410 -23 543 5 172 37 348 109 499
206 318 204 554 565 621 950 20 118 20 377 -1 487 -14 77 -61 249 -68 249 -1
0 0 -37 2 -83 8 -144 -40 -373 -105 -502 -74 -147 -219 -318 -350 -411 -102
-74 -245 -136 -393 -171 -92 -21 -325 -24 -415 -4 -182 40 -367 131 -484 237
-61 54 -136 172 -162 256 -34 104 -34 274 -1 369 65 188 212 336 389 390 69
22 74 25 48 30 -41 9 -239 8 -302 -1z"/>
<path d="M1753 3923 c9 -2 25 -2 35 0 9 3 1 5 -18 5 -19 0 -27 -2 -17 -5z"/>
<path d="M1107 3173 c-11 -11 -8 -375 4 -418 12 -45 49 -89 93 -112 40 -21
137 -13 173 13 67 50 68 54 71 300 l3 225 -38 -3 -38 -3 -5 -217 c-6 -246 -6
-247 -82 -255 -37 -4 -49 -1 -74 20 l-29 25 -3 216 -3 216 -33 0 c-18 0 -36
-3 -39 -7z"/>
<path d="M1984 3165 c-4 -8 -3 -26 0 -40 5 -20 13 -25 36 -25 28 0 30 2 30 40
0 38 -2 40 -30 40 -18 0 -33 -6 -36 -15z"/>
<path d="M3519 3170 c-1 -5 -1 -19 -1 -30 0 -37 2 -40 32 -40 28 0 30 2 30 40
0 38 -2 40 -30 40 -16 0 -30 -4 -31 -10z"/>
<path d="M4019 3168 c0 -7 0 -37 1 -65 1 -29 -1 -61 -5 -72 -6 -19 -7 -19 -58
5 -62 28 -118 30 -172 5 -115 -53 -157 -184 -97 -302 22 -45 36 -59 82 -82 46
-24 64 -28 113 -25 39 3 67 11 88 27 25 19 33 21 40 10 5 -8 9 -17 9 -21 0 -5
14 -8 30 -8 l30 0 0 270 0 270 -30 0 c-17 0 -30 -5 -31 -12z m-63 -210 c46
-40 67 -89 58 -132 -17 -81 -68 -126 -142 -126 -145 0 -195 194 -70 270 52 31
110 27 154 -12z"/>
<path d="M5010 3111 c0 -103 -1 -104 -67 -74 -187 86 -361 -109 -265 -298 22
-44 36 -58 81 -81 69 -36 131 -37 194 -4 45 24 46 24 52 5 4 -13 15 -19 36
-19 l29 0 0 270 0 270 -30 0 -30 0 0 -69z m-61 -157 c74 -66 77 -136 9 -210
-38 -41 -44 -44 -91 -44 -88 0 -147 61 -147 153 0 71 71 137 147 137 35 0 50
-7 82 -36z"/>
<path d="M2626 3040 c-22 -11 -48 -28 -59 -37 -30 -27 -67 -113 -67 -156 0
-41 45 -141 77 -169 48 -43 147 -61 210 -37 33 12 113 87 113 106 0 19 -65 16
-81 -3 -53 -65 -167 -56 -219 16 -40 56 -29 60 155 60 l165 0 0 39 c0 22 -5
52 -11 68 -14 38 -77 102 -116 119 -46 20 -121 17 -167 -6z m181 -85 c59 -59
47 -70 -90 -73 -102 -2 -118 0 -124 14 -15 41 58 94 129 94 44 0 54 -4 85 -35z"/>
<path d="M3255 3038 c-81 -63 -58 -169 45 -208 55 -21 70 -39 70 -81 0 -29 -5
-41 -21 -49 -28 -15 -72 3 -89 36 -14 24 -53 33 -65 14 -3 -5 1 -24 8 -43 58
-137 269 -74 242 72 -9 47 -38 78 -102 107 -35 15 -57 32 -65 50 -11 23 -10
28 11 45 31 25 43 24 71 -6 24 -25 80 -35 80 -15 0 21 -30 69 -52 84 -33 23
-100 20 -133 -6z"/>
<path d="M4287 3045 c-83 -29 -127 -99 -127 -200 0 -104 45 -172 133 -201 61
-20 128 -14 169 16 25 18 32 20 39 9 5 -8 9 -17 9 -21 0 -5 16 -8 35 -8 l35 0
0 205 0 205 -34 0 c-26 0 -36 -5 -41 -19 -6 -19 -7 -19 -52 5 -52 27 -107 30
-166 9z m154 -78 c49 -32 71 -81 66 -141 -4 -43 -10 -55 -45 -88 -36 -33 -47
-38 -89 -38 -58 0 -105 26 -128 70 -22 43 -21 121 1 155 43 65 132 84 195 42z"/>
<path d="M1544 3037 c-2 -7 -3 -98 -2 -202 l3 -190 31 -3 31 -3 5 138 c3 80 9
147 16 160 24 44 99 66 142 43 37 -20 45 -52 50 -195 l5 -140 33 -3 32 -3 0
144 c0 162 -9 198 -60 241 -27 22 -41 26 -93 26 -35 -1 -73 -7 -87 -15 -32
-18 -40 -18 -40 0 0 19 -58 21 -66 2z"/>
<path d="M1984 3037 c-2 -7 -3 -98 -2 -202 l3 -190 33 -3 32 -3 0 205 0 206
-30 0 c-17 0 -33 -6 -36 -13z"/>
<path d="M2110 3042 c0 -5 33 -96 74 -203 72 -190 74 -194 102 -194 28 0 31 5
106 195 43 107 78 198 78 203 0 12 -68 8 -73 -5 -2 -7 -24 -67 -47 -133 -23
-66 -48 -126 -55 -133 -9 -10 -20 12 -54 105 -67 187 -59 173 -97 173 -19 0
-34 -4 -34 -8z"/>
<path d="M2995 3041 c-6 -11 -5 -357 2 -383 3 -13 14 -18 39 -18 l34 0 0 145
c0 142 1 147 25 170 13 14 33 25 45 25 16 0 20 6 20 35 0 30 -3 35 -23 35 -13
0 -32 -7 -43 -15 -25 -19 -34 -19 -34 0 0 17 -55 22 -65 6z"/>
<path d="M3519 3038 c-1 -14 0 -378 1 -390 0 -5 14 -8 30 -8 l30 0 0 205 0
205 -30 0 c-17 0 -30 -5 -31 -12z"/>
<path d="M3420 2368 c-33 -58 -37 -78 -17 -78 17 0 108 111 101 122 -3 4 -16
8 -29 8 -19 0 -31 -12 -55 -52z"/>
<path d="M944 2356 c-14 -36 0 -51 48 -54 l48 -3 2 -232 3 -232 35 0 35 0 5
230 5 230 53 3 52 3 0 35 0 34 -140 0 c-113 0 -142 -3 -146 -14z"/>
<path d="M3077 2363 c-9 -8 -9 -496 -1 -517 4 -10 18 -16 40 -16 l34 0 0 270
0 270 -33 0 c-19 0 -37 -3 -40 -7z"/>
<path d="M4210 2330 c0 -38 2 -40 30 -40 28 0 30 2 30 40 0 38 -2 40 -30 40
-28 0 -30 -2 -30 -40z"/>
<path d="M1315 2212 c-55 -40 -72 -61 -90 -111 -21 -60 -19 -98 9 -156 26 -56
67 -98 109 -114 42 -16 134 -13 173 5 38 18 94 77 94 99 0 21 -64 20 -81 -1
-17 -21 -84 -54 -109 -54 -54 0 -149 85 -123 111 4 4 80 10 168 11 l160 3 3
40 c4 52 -31 119 -81 159 -34 27 -48 31 -115 34 -72 3 -80 2 -117 -26z m201
-73 c22 -21 34 -41 32 -54 -3 -19 -11 -20 -122 -23 -68 -1 -124 2 -129 7 -15
15 24 74 63 94 53 27 113 18 156 -24z"/>
<path d="M1805 2223 c-109 -57 -151 -170 -105 -277 39 -91 105 -130 209 -124
56 3 75 9 105 31 34 26 66 73 66 97 0 5 -14 10 -30 10 -22 0 -41 -10 -65 -35
-45 -44 -92 -54 -146 -30 -54 25 -79 68 -79 137 0 134 135 195 228 102 35 -35
92 -48 92 -20 0 22 -44 79 -79 103 -42 28 -148 32 -196 6z"/>
<path d="M2282 2221 c-39 -25 -42 -25 -42 -5 0 11 -8 14 -32 12 l-33 -3 0
-195 0 -195 33 -3 32 -3 0 118 c0 183 20 223 108 223 32 0 49 -6 67 -25 29
-28 28 -21 29 -185 l1 -125 38 -3 37 -3 0 132 c0 152 -10 195 -55 239 -27 26
-43 32 -91 36 -48 4 -65 1 -92 -15z"/>
<path d="M2697 2219 c-50 -26 -93 -88 -108 -154 -11 -51 -10 -56 18 -118 35
-72 75 -109 142 -127 148 -39 293 115 251 269 -12 46 -68 114 -111 137 -41 21
-146 17 -192 -7z m195 -88 c35 -37 38 -45 38 -98 0 -71 -26 -118 -75 -139 -47
-19 -84 -18 -123 6 -93 57 -96 192 -5 255 31 22 46 25 83 22 36 -4 51 -13 82
-46z"/>
<path d="M3329 2220 c-53 -28 -95 -81 -109 -138 -36 -151 103 -297 249 -262
58 14 115 58 141 111 22 43 27 139 9 186 -12 34 -64 90 -101 109 -40 21 -145
17 -189 -6z m149 -54 c65 -34 99 -104 81 -168 -48 -182 -285 -136 -267 52 10
97 106 157 186 116z"/>
<path d="M3779 2208 c-69 -54 -83 -80 -87 -162 -4 -82 13 -129 65 -178 58 -55
158 -65 237 -23 54 28 59 19 25 -46 -36 -72 -128 -94 -196 -46 -38 26 -103 37
-103 18 0 -16 51 -71 81 -86 34 -18 160 -20 192 -4 33 17 77 60 95 94 14 25
17 68 20 243 l4 212 -36 0 c-22 0 -39 -6 -42 -14 -5 -12 -12 -11 -47 5 -27 12
-65 19 -104 19 -54 0 -66 -4 -104 -32z m169 -42 c40 -21 78 -66 92 -109 10
-34 9 -43 -12 -84 -29 -59 -63 -84 -121 -90 -43 -5 -48 -3 -94 40 -48 45 -48
46 -48 111 0 54 4 68 24 89 48 52 110 69 159 43z"/>
<path d="M4447 2214 c-21 -14 -51 -44 -67 -66 -27 -37 -30 -49 -30 -115 0 -88
21 -138 77 -180 31 -24 47 -28 112 -31 64 -2 82 1 116 20 39 23 85 79 85 104
0 9 -12 14 -34 14 -25 0 -38 -6 -51 -26 -19 -30 -71 -54 -115 -54 -38 0 -105
58 -120 106 -18 52 -4 110 35 149 59 58 129 58 185 0 25 -26 42 -35 67 -35 43
0 44 23 1 74 -40 49 -81 66 -160 66 -51 0 -70 -5 -101 -26z"/>
<path d="M4915 2218 c-21 -13 -53 -43 -70 -66 -27 -40 -30 -51 -30 -120 0 -88
17 -126 77 -175 51 -41 143 -49 213 -18 43 19 50 20 57 6 5 -8 22 -15 38 -15
l30 0 0 200 0 200 -28 0 c-20 0 -32 -7 -38 -21 l-9 -20 -30 23 c-44 34 -155
38 -210 6z m158 -52 c42 -17 72 -52 87 -99 15 -46 6 -89 -27 -128 -59 -69
-131 -78 -192 -23 -88 79 -76 200 24 245 48 22 66 23 108 5z"/>
<path d="M4208 2153 c-2 -43 -1 -133 1 -200 l3 -123 29 0 29 0 0 200 0 200
-29 0 -29 0 -4 -77z"/>
<path d="M3850 1523 c-53 -85 -28 -103 37 -25 58 69 59 72 24 72 -26 0 -36 -8
-61 -47z"/>
<path d="M2047 1513 c-4 -3 -7 -39 -7 -80 0 -40 -2 -73 -4 -73 -2 0 -23 9 -47
20 -51 23 -126 26 -172 6 -70 -30 -127 -122 -127 -205 0 -39 31 -114 58 -144
52 -58 184 -77 250 -37 40 25 38 25 45 -1 4 -16 12 -20 39 -17 l33 3 3 268 2
267 -33 0 c-19 0 -37 -3 -40 -7z m-56 -210 c44 -38 58 -77 50 -140 -17 -123
-152 -164 -236 -72 -32 36 -35 44 -35 100 0 58 2 64 39 100 36 36 43 39 94 39
46 0 61 -5 88 -27z"/>
<path d="M2897 1513 c-10 -9 -8 -506 1 -521 7 -9 39 -12 128 -10 l119 3 3 33
3 32 -75 0 c-41 0 -81 3 -90 6 -14 5 -16 36 -16 235 l0 229 -33 0 c-19 0 -37
-3 -40 -7z"/>
<path d="M2302 1383 c-72 -35 -133 -149 -118 -224 11 -60 62 -137 105 -159 95
-48 180 -35 254 41 26 27 47 53 47 59 0 20 -76 11 -96 -11 -54 -60 -138 -62
-192 -6 -17 18 -32 41 -34 52 -3 19 4 20 167 25 l170 5 -2 42 c-3 78 -57 155
-125 180 -48 17 -138 15 -176 -4z m183 -84 c24 -21 35 -39 33 -53 -3 -20 -9
-21 -123 -21 -107 0 -120 2 -123 18 -2 10 11 32 31 52 32 32 40 35 91 35 48 0
60 -4 91 -31z"/>
<path d="M3305 1386 c-44 -19 -102 -89 -115 -138 -26 -95 20 -211 100 -253 82
-42 183 -25 248 41 23 24 42 49 42 54 0 19 -76 11 -95 -10 -24 -27 -80 -43
-120 -36 -36 7 -109 78 -102 99 2 8 54 13 172 15 l167 2 -4 56 c-9 108 -95
184 -208 184 -30 -1 -68 -7 -85 -14z m180 -90 c22 -21 35 -42 33 -53 -3 -16
-17 -18 -118 -21 -130 -2 -148 3 -130 39 24 48 61 69 122 69 51 0 60 -3 93
-34z"/>
<path d="M3765 1382 c-49 -30 -103 -98 -111 -137 -24 -129 54 -253 170 -270
132 -20 259 105 243 241 -7 62 -58 138 -111 163 -55 27 -149 28 -191 3z m180
-83 c116 -102 21 -294 -124 -250 -103 30 -134 170 -56 248 29 29 39 33 89 33
48 0 60 -4 91 -31z"/>
<path d="M4140 1185 l0 -205 35 0 35 0 0 135 c0 181 17 215 108 215 43 0 73
-24 91 -73 6 -16 11 -84 11 -153 l0 -124 36 0 36 0 -3 153 c-4 138 -6 155 -27
190 -36 57 -57 67 -138 67 -51 0 -75 -4 -84 -15 -7 -8 -19 -15 -26 -15 -8 0
-14 7 -14 15 0 10 -10 15 -30 15 l-30 0 0 -205z"/>
<path d="M1009 651 c-55 -56 -30 -153 47 -180 69 -24 84 -38 84 -79 0 -46 -14
-62 -55 -62 -31 0 -65 25 -65 47 0 17 -31 25 -46 12 -11 -9 -10 -18 7 -50 54
-107 203 -78 216 43 7 61 -25 106 -96 133 -64 24 -79 43 -65 82 14 40 66 45
90 9 15 -24 43 -34 57 -20 11 11 -14 63 -38 78 -14 9 -43 16 -65 16 -33 0 -48
-6 -71 -29z"/>
<path d="M3753 673 c-10 -4 -13 -53 -13 -200 l0 -194 23 3 c21 3 22 8 27 109
6 122 14 139 70 139 61 0 75 -24 77 -139 1 -53 3 -100 3 -104 0 -5 10 -7 23
-5 21 3 22 8 25 100 5 159 -28 205 -138 195 l-60 -5 0 48 c0 47 -11 62 -37 53z"/>
<path d="M2607 663 c-9 -8 -9 -346 -1 -367 8 -20 28 -21 44 -1 10 12 17 12 48
-5 20 -11 47 -20 60 -20 35 0 84 25 116 59 41 43 49 133 16 186 -31 50 -70 68
-139 62 -31 -2 -66 -8 -78 -12 -22 -7 -23 -5 -23 49 0 48 -3 56 -18 56 -10 0
-22 -3 -25 -7z m204 -146 c31 -21 34 -27 37 -81 4 -78 -19 -106 -89 -106 -41
0 -51 4 -78 35 -36 42 -39 76 -11 123 34 55 86 66 141 29z"/>
<path d="M1285 538 c-57 -58 -65 -100 -31 -173 49 -107 165 -127 245 -41 14
14 21 31 18 40 -9 22 -21 20 -55 -9 -22 -19 -41 -25 -75 -25 -38 0 -49 5 -72
31 -14 18 -22 36 -18 40 5 5 60 10 123 11 l115 3 3 27 c5 39 -26 97 -62 119
-21 13 -50 19 -90 19 -56 0 -61 -2 -101 -42z m164 -24 c53 -44 43 -54 -59 -54
-71 0 -90 3 -90 14 0 23 59 66 90 66 16 0 42 -11 59 -26z"/>
<path d="M1603 567 c-5 -7 -9 -73 -9 -147 l1 -135 25 0 c25 0 25 0 28 107 3
107 3 108 32 130 17 12 30 30 30 40 0 20 -20 24 -38 6 -8 -8 -18 -9 -36 0 -18
8 -27 8 -33 -1z"/>
<path d="M2043 558 c-50 -56 -36 -102 43 -141 42 -21 54 -32 54 -50 0 -53 -44
-61 -84 -16 -25 28 -30 29 -43 16 -13 -13 -13 -18 1 -44 43 -85 176 -54 176
41 0 43 -24 74 -76 97 -49 20 -63 41 -44 64 16 19 44 19 60 0 16 -19 39 -19
47 0 18 50 -94 77 -134 33z"/>
<path d="M2282 545 c-95 -86 -64 -230 57 -266 37 -11 50 -11 89 3 33 12 49 14
62 6 10 -6 25 -8 34 -5 14 5 16 26 16 146 0 120 -2 140 -16 145 -9 4 -24 0
-33 -8 -14 -13 -19 -13 -35 0 -12 8 -43 14 -78 14 -52 0 -62 -4 -96 -35z m163
-36 c31 -28 35 -36 35 -80 0 -69 -30 -99 -99 -99 -43 0 -53 4 -75 31 -39 46
-36 101 8 145 44 44 82 45 131 3z"/>
<path d="M3006 550 c-71 -63 -73 -167 -5 -232 46 -44 94 -56 151 -37 33 11 88
61 88 81 0 18 -32 13 -61 -8 -48 -35 -120 -34 -149 3 -11 14 -19 31 -17 37 2
7 51 13 123 16 l119 5 -2 38 c-5 78 -65 127 -157 127 -47 0 -60 -4 -90 -30z
m153 -36 c53 -44 43 -54 -59 -54 -71 0 -90 3 -90 14 0 23 59 66 90 66 16 0 42
-11 59 -26z"/>
<path d="M3312 568 c-14 -14 -17 -255 -3 -276 5 -8 17 -12 27 -10 17 3 19 14
21 93 4 118 8 132 43 150 32 17 39 42 15 51 -8 4 -22 1 -29 -6 -11 -8 -20 -8
-35 -1 -25 14 -24 14 -39 -1z"/>
<path d="M4089 541 c-38 -37 -39 -41 -39 -105 0 -84 17 -118 73 -145 51 -25
75 -26 123 -6 27 11 39 12 53 3 10 -6 26 -8 35 -5 24 9 24 282 0 291 -8 3 -24
1 -35 -4 -13 -7 -25 -7 -38 0 -11 5 -45 10 -77 10 -52 0 -59 -3 -95 -39z m159
-21 c57 -35 69 -108 26 -159 -22 -27 -32 -31 -74 -31 -43 0 -51 4 -80 37 -28
32 -32 41 -27 77 4 29 15 49 37 69 36 32 73 35 118 7z"/>
<path d="M4449 541 c-38 -37 -39 -41 -39 -105 0 -80 8 -97 62 -136 46 -33 89
-38 142 -16 30 13 76 59 76 76 0 20 -31 16 -62 -6 -26 -20 -43 -24 -83 -22
-44 3 -52 7 -73 38 -32 48 -25 104 18 143 40 36 77 35 125 -3 71 -56 109 -31
47 30 -38 39 -42 40 -107 40 -65 0 -69 -1 -106 -39z"/>
<path d="M4788 540 l-40 -40 4 -74 c4 -83 16 -105 80 -137 45 -23 74 -24 121
-4 32 13 77 57 77 75 0 20 -31 16 -62 -6 -47 -35 -122 -31 -151 8 -11 14 -16
31 -13 37 5 7 51 11 128 11 l121 0 -7 43 c-14 85 -66 127 -160 127 -55 0 -61
-2 -98 -40z m164 -27 c48 -45 39 -53 -62 -53 -58 0 -90 4 -90 11 0 6 13 24 29
40 39 38 84 39 123 2z"/>
<path d="M5107 573 c-4 -3 -7 -71 -7 -150 l0 -143 25 0 25 0 0 105 c0 92 3
108 20 125 11 11 27 20 35 20 9 0 15 9 15 25 0 18 -5 25 -19 25 -11 0 -22 -4
-26 -10 -4 -6 -15 -6 -31 0 -30 12 -29 12 -37 3z"/>
<path d="M1731 336 c-12 -14 -3 -116 10 -116 28 0 41 113 15 123 -8 3 -19 0
-25 -7z"/>
<path d="M3440 335 c-10 -12 -10 -21 -1 -41 6 -14 8 -36 5 -50 -8 -30 10 -32
30 -2 21 30 21 94 0 102 -21 8 -20 8 -34 -9z"/>
</g>
</svg>
